<svg version="1.1" id="Layer_1" xmlns="http://www.w3.org/2000/svg" xmlns:xlink="http://www.w3.org/1999/xlink" x="0px" y="0px" viewBox="0 0 16.2 34.5" enable-background="new 0 0 16.2 34.5" xml:space="preserve" width="16.2"  height="34.5" >
<g>
	<path fill="#FFFFFF" d="M16.2,0v2.2L9.3,6.4v0h6.9v1.6H7V6l7.1-4.4v0H7V0H16.2z"></path>
	<path fill="#FFFFFF" d="M16.2,10.7v6.1h-1.4v-4.5h-2.3v4.2h-1.4v-4.2H8.5V17H7v-6.3H16.2z"></path>
	<path fill="#FFFFFF" d="M11.9,21.3l4.3-2.9v2l-3.1,1.9l3.1,1.9v1.9l-4.3-2.8L7,26.6v-2.1l3.6-2.2L7,20.1v-2L11.9,21.3z"></path>
	<path fill="#FFFFFF" d="M14.8,30v-2.8h1.4v7.3h-1.4v-2.8H7V30H14.8z"></path>
</g>
<line fill="none" stroke="#FFFFFF" stroke-width="2px" x1="1" y1="0.5" x2="1" y2="33.3"></line>
</svg>