<svg version="1.1" id="Layer_1" xmlns="http://www.w3.org/2000/svg" xmlns:xlink="http://www.w3.org/1999/xlink" x="0px" y="0px" viewBox="0 0 16.2 33.3" enable-background="new 0 0 16.2 33.3" xml:space="preserve" width="16.2"  height="33.3" >
<g>
	<path fill="#FFFFFF" d="M0,33.3v-3c0-0.5,0-1,0.1-1.4c0.1-0.4,0.3-0.8,0.5-1.1c0.2-0.3,0.5-0.5,0.8-0.7c0.3-0.2,0.7-0.2,1.2-0.2
		c0.5,0,0.9,0.1,1.3,0.3c0.3,0.2,0.6,0.4,0.8,0.8c0.2,0.3,0.4,0.7,0.5,1.1c0.1,0.4,0.1,0.9,0.1,1.4v1.3h3.8v1.6H0z M4,30.6
		C4,30.3,4,30,4,29.8c0-0.2-0.1-0.5-0.2-0.6s-0.2-0.3-0.4-0.5c-0.2-0.1-0.4-0.2-0.7-0.2c-0.3,0-0.5,0.1-0.7,0.2s-0.3,0.3-0.4,0.4
		c-0.1,0.2-0.2,0.4-0.2,0.6s0,0.5,0,0.7v1.2H4V30.6z"></path>
	<path fill="#FFFFFF" d="M0,24.9v-3.2c0-0.4,0-0.9,0.1-1.3c0.1-0.4,0.2-0.8,0.4-1.1s0.5-0.6,0.8-0.8c0.3-0.2,0.7-0.3,1.2-0.3
		c0.7,0,1.2,0.2,1.6,0.6c0.4,0.4,0.7,0.9,0.9,1.5l4.1-2.5v2l-3.9,2.1v1.2h3.9v1.6H0z M4,21.9c0-0.2,0-0.5-0.1-0.7
		c0-0.2-0.1-0.4-0.2-0.6c-0.1-0.2-0.2-0.3-0.4-0.5c-0.2-0.1-0.4-0.2-0.7-0.2c-0.3,0-0.5,0.1-0.6,0.2c-0.2,0.1-0.3,0.3-0.4,0.4
		c-0.1,0.2-0.2,0.4-0.2,0.6c0,0.2-0.1,0.4-0.1,0.6v1.5H4V21.9z"></path>
	<path fill="#FFFFFF" d="M0,16.2v-6.1h1.4v4.5h2.3v-4.2h1.4v4.2h2.6V9.9h1.5v6.3H0z"></path>
	<path fill="#FFFFFF" d="M0,8.9V7.1l7.1-2.5V4.5L0,1.9V0.1l9.2,3.7v1.4L0,8.9z"></path>
</g>
<line fill="none" stroke="#FFFFFF" stroke-width="2px" x1="15.2" y1="32.9" x2="15.2" y2="0"></line>
</svg>